<svg xmlns="http://www.w3.org/2000/svg" xmlns:xlink="http://www.w3.org/1999/xlink" viewBox="0 0 24 30" version="1.1" x="0px" y="0px"><title>home</title><desc>Created with Sketch.</desc><g stroke="none" stroke-width="1" fill="none" fill-rule="evenodd"><path d="M12.2357023,9.23570226 L16.9023689,13.9023689 C16.9648811,13.9648811 17,14.0496657 17,14.1380712 L17,18.6666667 C17,18.8507616 16.8507616,19 16.6666667,19 L14,19 L14,16 C14,15.824273 13.8640204,15.6803058 13.6915437,15.667581 L13.6666667,15.6666667 L10.3333333,15.6666667 C10.1576064,15.6666667 10.0136391,15.8026463 10.0009143,15.9751229 L10,16 L10,19 L7.33333333,19 C7.14923842,19 7,18.8507616 7,18.6666667 L7,14.1380712 C7,14.0496657 7.03511895,13.9648811 7.09763107,13.9023689 L11.7642977,9.23570226 C11.8944725,9.1055275 12.1055275,9.1055275 12.2357023,9.23570226 Z M12.0134985,5.00027581 C12.0959,5.00358548 12.1769698,5.03668223 12.2396053,5.09956605 L19.9008271,12.791525 C20.0330576,12.9242797 20.0330576,13.1395177 19.9008271,13.2722724 L18.9431292,14.2337673 C18.8108987,14.366522 18.5965107,14.366522 18.4642802,14.2337673 L12,7.74366667 L5.53571976,14.2337673 C5.40348927,14.366522 5.18910129,14.366522 5.0568708,14.2337673 L4.09917287,13.2722724 C3.96694238,13.1395177 3.96694238,12.9242797 4.09917287,12.791525 L7,9.879 L7,7 C7,6.81590508 7.14923842,6.66666667 7.33333333,6.66666667 L8.66666667,6.66666667 C8.85076158,6.66666667 9,6.81590508 9,7 L9,7.87083333 L11.7603947,5.09956605 C11.8299897,5.02969514 11.922343,4.99659839 12.0134985,5.00027581 Z" fill="#000000"/></g><text x="0" y="39" fill="#000000" font-size="5px" font-weight="bold" font-family="'Helvetica Neue', Helvetica, Arial-Unicode, Arial, Sans-serif">Created by Justin Henry</text><text x="0" y="44" fill="#000000" font-size="5px" font-weight="bold" font-family="'Helvetica Neue', Helvetica, Arial-Unicode, Arial, Sans-serif">from the Noun Project</text></svg>