<svg xmlns="http://www.w3.org/2000/svg" xmlns:xlink="http://www.w3.org/1999/xlink" viewBox="0 0 24 30" version="1.1" x="0px" y="0px"><title>logout</title><desc>Created with Sketch.</desc><g stroke="none" stroke-width="1" fill="none" fill-rule="evenodd"><path d="M17.6666667,4 C17.8507616,4 18,4.14923842 18,4.33333333 L18,7.19526215 C18,7.37935706 17.8507616,7.52859548 17.6666667,7.52859548 C17.5782612,7.52859548 17.4934765,7.49347653 17.4309644,7.43096441 L16,6 L6,6 L6,18 L16,18 L17.4309644,16.5690356 C17.5611392,16.4388608 17.7721942,16.4388608 17.9023689,16.5690356 C17.9648811,16.6315477 18,16.7163324 18,16.8047379 L18,19.6666667 C18,19.8507616 17.8507616,20 17.6666667,20 L4.33333333,20 C4.14923842,20 4,19.8507616 4,19.6666667 L4,4.33333333 C4,4.14923842 4.14923842,4 4.33333333,4 L17.6666667,4 Z M15.6499893,7.59516156 L19.8991604,11.7592487 C19.9614425,11.8202837 19.9947015,11.8997608 19.9987634,11.9804884 L19.9987634,11.9858435 C20.0021483,12.0531164 19.9852575,12.1212578 19.9479904,12.1803186 L19.8991604,12.2407513 L15.6499893,16.4048384 C15.5203813,16.5318512 15.312984,16.5318512 15.183376,16.4048384 L14.0844823,15.3279486 C13.9529978,15.1990969 13.9508634,14.9880527 14.0797152,14.8565682 L14.0844823,14.851801 L15.9776667,12.9960687 L10.3333333,12.9961712 C10.1492384,12.9961712 10,12.8469328 10,12.6628378 L10,11.3371622 C10,11.1530672 10.1492384,11.0038288 10.3333333,11.0038288 L15.9778333,11.0037353 L14.0844823,9.14819895 C13.9529978,9.01934724 13.9508634,8.80830304 14.0797152,8.67681854 C14.0812881,8.67521347 14.0828772,8.67362435 14.0844823,8.67205143 L15.183376,7.59516156 C15.312984,7.4681488 15.5203813,7.4681488 15.6499893,7.59516156 Z" fill="#000000"/></g><text x="0" y="39" fill="#000000" font-size="5px" font-weight="bold" font-family="'Helvetica Neue', Helvetica, Arial-Unicode, Arial, Sans-serif">Created by Justin Henry</text><text x="0" y="44" fill="#000000" font-size="5px" font-weight="bold" font-family="'Helvetica Neue', Helvetica, Arial-Unicode, Arial, Sans-serif">from the Noun Project</text></svg>