<svg xmlns="http://www.w3.org/2000/svg" xmlns:xlink="http://www.w3.org/1999/xlink" viewBox="0 0 24 30" version="1.1" x="0px" y="0px"><title>card-view</title><desc>Created with Sketch.</desc><g stroke="none" stroke-width="1" fill="none" fill-rule="evenodd"><path d="M8.66666667,15 C8.85076158,15 9,15.1492384 9,15.3333333 L9,18.6666667 C9,18.8507616 8.85076158,19 8.66666667,19 L5.33333333,19 C5.14923842,19 5,18.8507616 5,18.6666667 L5,15.3333333 C5,15.1492384 5.14923842,15 5.33333333,15 L8.66666667,15 Z M13.6666667,15 C13.8507616,15 14,15.1492384 14,15.3333333 L14,18.6666667 C14,18.8507616 13.8507616,19 13.6666667,19 L10.3333333,19 C10.1492384,19 10,18.8507616 10,18.6666667 L10,15.3333333 C10,15.1492384 10.1492384,15 10.3333333,15 L13.6666667,15 Z M18.6666667,15 C18.8507616,15 19,15.1492384 19,15.3333333 L19,18.6666667 C19,18.8507616 18.8507616,19 18.6666667,19 L15.3333333,19 C15.1492384,19 15,18.8507616 15,18.6666667 L15,15.3333333 C15,15.1492384 15.1492384,15 15.3333333,15 L18.6666667,15 Z M8.66666667,10 C8.85076158,10 9,10.1492384 9,10.3333333 L9,13.6666667 C9,13.8507616 8.85076158,14 8.66666667,14 L5.33333333,14 C5.14923842,14 5,13.8507616 5,13.6666667 L5,10.3333333 C5,10.1492384 5.14923842,10 5.33333333,10 L8.66666667,10 Z M13.6666667,10 C13.8507616,10 14,10.1492384 14,10.3333333 L14,13.6666667 C14,13.8507616 13.8507616,14 13.6666667,14 L10.3333333,14 C10.1492384,14 10,13.8507616 10,13.6666667 L10,10.3333333 C10,10.1492384 10.1492384,10 10.3333333,10 L13.6666667,10 Z M18.6666667,10 C18.8507616,10 19,10.1492384 19,10.3333333 L19,13.6666667 C19,13.8507616 18.8507616,14 18.6666667,14 L15.3333333,14 C15.1492384,14 15,13.8507616 15,13.6666667 L15,10.3333333 C15,10.1492384 15.1492384,10 15.3333333,10 L18.6666667,10 Z M8.66666667,5 C8.85076158,5 9,5.14923842 9,5.33333333 L9,8.66666667 C9,8.85076158 8.85076158,9 8.66666667,9 L5.33333333,9 C5.14923842,9 5,8.85076158 5,8.66666667 L5,5.33333333 C5,5.14923842 5.14923842,5 5.33333333,5 L8.66666667,5 Z M13.6666667,5 C13.8507616,5 14,5.14923842 14,5.33333333 L14,8.66666667 C14,8.85076158 13.8507616,9 13.6666667,9 L10.3333333,9 C10.1492384,9 10,8.85076158 10,8.66666667 L10,5.33333333 C10,5.14923842 10.1492384,5 10.3333333,5 L13.6666667,5 Z M18.6666667,5 C18.8507616,5 19,5.14923842 19,5.33333333 L19,8.66666667 C19,8.85076158 18.8507616,9 18.6666667,9 L15.3333333,9 C15.1492384,9 15,8.85076158 15,8.66666667 L15,5.33333333 C15,5.14923842 15.1492384,5 15.3333333,5 L18.6666667,5 Z" fill="#000000"/></g><text x="0" y="39" fill="#000000" font-size="5px" font-weight="bold" font-family="'Helvetica Neue', Helvetica, Arial-Unicode, Arial, Sans-serif">Created by Justin Henry</text><text x="0" y="44" fill="#000000" font-size="5px" font-weight="bold" font-family="'Helvetica Neue', Helvetica, Arial-Unicode, Arial, Sans-serif">from the Noun Project</text></svg>