<svg xmlns="http://www.w3.org/2000/svg" xmlns:xlink="http://www.w3.org/1999/xlink" viewBox="0 0 24 30" version="1.1" x="0px" y="0px"><title>list-view</title><desc>Created with Sketch.</desc><g stroke="none" stroke-width="1" fill="none" fill-rule="evenodd"><path d="M18.6666667,17 C18.8507616,17 19,17.1492384 19,17.3333333 L19,18.6666667 C19,18.8507616 18.8507616,19 18.6666667,19 L5.33333333,19 C5.14923842,19 5,18.8507616 5,18.6666667 L5,17.3333333 C5,17.1492384 5.14923842,17 5.33333333,17 L18.6666667,17 Z M18.6666667,13 C18.8507616,13 19,13.1492384 19,13.3333333 L19,14.6666667 C19,14.8507616 18.8507616,15 18.6666667,15 L5.33333333,15 C5.14923842,15 5,14.8507616 5,14.6666667 L5,13.3333333 C5,13.1492384 5.14923842,13 5.33333333,13 L18.6666667,13 Z M18.6666667,9 C18.8507616,9 19,9.14923842 19,9.33333333 L19,10.6666667 C19,10.8507616 18.8507616,11 18.6666667,11 L5.33333333,11 C5.14923842,11 5,10.8507616 5,10.6666667 L5,9.33333333 C5,9.14923842 5.14923842,9 5.33333333,9 L18.6666667,9 Z M18.6666667,5 C18.8507616,5 19,5.14923842 19,5.33333333 L19,6.66666667 C19,6.85076158 18.8507616,7 18.6666667,7 L5.33333333,7 C5.14923842,7 5,6.85076158 5,6.66666667 L5,5.33333333 C5,5.14923842 5.14923842,5 5.33333333,5 L18.6666667,5 Z" fill="#000000"/></g><text x="0" y="39" fill="#000000" font-size="5px" font-weight="bold" font-family="'Helvetica Neue', Helvetica, Arial-Unicode, Arial, Sans-serif">Created by Justin Henry</text><text x="0" y="44" fill="#000000" font-size="5px" font-weight="bold" font-family="'Helvetica Neue', Helvetica, Arial-Unicode, Arial, Sans-serif">from the Noun Project</text></svg>