<svg xmlns="http://www.w3.org/2000/svg" xmlns:xlink="http://www.w3.org/1999/xlink" viewBox="0 0 24 30" version="1.1" x="0px" y="0px"><title>edit</title><desc>Created with Sketch.</desc><g stroke="none" stroke-width="1" fill="none" fill-rule="evenodd"><path d="M15.7575,3.99985931 L13.7573593,6 L6,6 L6,18 L18,18 L18,10.2426407 L20,8.24252598 L20,19.3333333 C20,19.7015232 19.7015232,20 19.3333333,20 L4.66666667,20 C4.29847683,20 4,19.7015232 4,19.3333333 L4,4.66666667 C4,4.29847683 4.29847683,3.99985931 4.66666667,3.99985931 L15.7575,3.99985931 Z M16.3333333,15 L16.3333333,16 L12.3333333,16 L13.3333333,15 L16.3333333,15 Z M14.3737734,6.79779943 L17.2022006,9.62622655 L10.8382395,15.9901876 L8.00981242,15.9901876 L8.00981242,13.1617605 L14.3737734,6.79779943 Z M9.77757937,12.8082071 L8.7169192,13.8688672 L8.7169192,14.4345527 L9.42402598,14.575974 L9.56544734,15.2830808 L10.1311328,15.2830808 L11.1917929,14.2224206 L9.77757937,12.8082071 Z M19.3235209,4.67647908 C20.1045695,5.45752767 20.1045695,6.72385763 19.3235209,7.50490621 L17.9093074,8.91911977 L15.0808802,6.09069265 L16.4950938,4.67647908 C17.2761424,3.8954305 18.5424723,3.8954305 19.3235209,4.67647908 Z" fill="#000000"/></g><text x="0" y="39" fill="#000000" font-size="5px" font-weight="bold" font-family="'Helvetica Neue', Helvetica, Arial-Unicode, Arial, Sans-serif">Created by Justin Henry</text><text x="0" y="44" fill="#000000" font-size="5px" font-weight="bold" font-family="'Helvetica Neue', Helvetica, Arial-Unicode, Arial, Sans-serif">from the Noun Project</text></svg>